<?xml version="1.0" encoding="utf-8"?>
<!-- Generator: Adobe Illustrator 26.3.1, SVG Export Plug-In . SVG Version: 6.00 Build 0)  -->
<svg version="1.1" xmlns="http://www.w3.org/2000/svg" xmlns:xlink="http://www.w3.org/1999/xlink" x="0px" y="0px"
	 viewBox="0 0 2621.69 1797.67" style="enable-background:new 0 0 2621.69 1797.67;" xml:space="preserve">
<style type="text/css">
	.st0{fill:#FFFFFF;}
	.st1{fill:#F04C4B;}
</style>
<g id="Layer_2">
</g>
<g id="Layer_1">
	<g>
		<path class="st1" d="M1634.55,782.97c-57.31-34.73-99.45-82.33-122.27-138.27c-7.45-18.27-12.74-37.16-15.95-56.41l-9.61,18.48
			l4.85,176.65l143.9,18.65C1635.23,795.73,1634.92,789.36,1634.55,782.97z"/>
		<path class="st1" d="M1022.93,1696.89c-4.09-4.43-8.76-7.68-14-9.74c3.44-1.37,6.6-3.78,9.49-7.23c2.88-3.44,5.16-7.46,6.84-12.07
			c1.68-4.6,2.52-9.27,2.52-14c0-10.5-2.62-19.53-7.87-27.1c-5.25-7.57-12.67-13.36-22.26-17.36c-9.59-4-20.8-6-33.62-6h-75.23
			v181.31h82.72c12.21,0,23.18-2.06,32.91-6.19c9.72-4.13,17.38-10.26,22.97-18.39c5.59-8.13,8.39-17.96,8.39-29.49
			c0-6.28-1.12-12.36-3.36-18.26C1030.17,1706.48,1027.01,1701.32,1022.93,1696.89z M942.6,1649.21h18.45c3.78,0,6.88,0.9,9.29,2.71
			c2.41,1.81,3.61,4.22,3.61,7.23c0,3.35-1.27,6.15-3.81,8.39c-2.54,2.24-6.09,3.36-10.64,3.36H942.6V1649.21z M977.76,1735.86
			c-2.62,2.71-6.17,4.06-10.64,4.06H942.6v-29.16h23.1c3.18,0,5.98,0.67,8.39,2c2.41,1.33,4.28,3.08,5.61,5.23
			c1.33,2.15,2,4.43,2,6.84C981.7,1729.47,980.38,1733.15,977.76,1735.86z"/>
		<path class="st1" d="M1197.91,1694.89c4.43-8.09,6.65-17.68,6.65-28.78c0-12.13-2.73-22.95-8.19-32.46
			c-5.46-9.5-13.1-16.92-22.91-22.26c-9.81-5.33-20.99-8-33.55-8h-80.52v181.31h53.81v-55.88h11.23h3.36l26.45,55.88h60.65
			l-35.49-69.81C1187.31,1709.65,1193.48,1702.98,1197.91,1694.89z M1147.97,1673.86c-1.34,2.41-3.16,4.35-5.48,5.81
			c-2.32,1.46-4.86,2.19-7.61,2.19h-21.68v-29.94h22.2c3.78,0,7.16,1.25,10.13,3.74c2.97,2.5,4.45,6.02,4.45,10.58
			C1149.97,1668.91,1149.3,1671.45,1147.97,1673.86z"/>
		<polygon class="st1" points="1286.24,1715.93 1347.28,1715.93 1347.28,1671.15 1286.24,1671.15 1286.24,1651.79 1365.6,1651.79 
			1365.6,1603.4 1232.43,1603.4 1232.43,1784.71 1367.54,1784.71 1367.54,1736.31 1286.24,1736.31 		"/>
		<polygon class="st1" points="1548.33,1708.57 1536.07,1666.5 1556.07,1603.4 1499.03,1603.4 1468.71,1708.7 1434.77,1603.4 
			1376.96,1603.4 1444.96,1784.71 1490.65,1784.71 1508.46,1736.44 1525.49,1784.71 1570.65,1784.71 1639.57,1603.4 1581.62,1603.4 
					"/>
		<polygon class="st1" points="1710.67,1715.93 1771.71,1715.93 1771.71,1671.15 1710.67,1671.15 1710.67,1651.79 1790.03,1651.79 
			1790.03,1603.4 1656.86,1603.4 1656.86,1784.71 1791.97,1784.71 1791.97,1736.31 1710.67,1736.31 		"/>
		<path class="st1" d="M1955.14,1694.89c4.43-8.09,6.64-17.68,6.64-28.78c0-12.13-2.73-22.95-8.19-32.46
			c-5.46-9.5-13.1-16.92-22.91-22.26c-9.81-5.33-20.99-8-33.55-8h-80.52v181.31h53.81v-55.88h11.23h3.36l26.45,55.88h60.65
			l-35.49-69.81C1944.54,1709.65,1950.71,1702.98,1955.14,1694.89z M1905.2,1673.86c-1.34,2.41-3.16,4.35-5.48,5.81
			c-2.32,1.46-4.86,2.19-7.61,2.19h-21.68v-29.94h22.2c3.78,0,7.16,1.25,10.13,3.74c2.97,2.5,4.45,6.02,4.45,10.58
			C1907.2,1668.91,1906.54,1671.45,1905.2,1673.86z"/>
		<polygon class="st1" points="2055.99,1667.66 2027.47,1603.4 1965.27,1603.4 2028.63,1717.86 2028.63,1784.71 2082.45,1784.71 
			2082.45,1717.47 2145.81,1603.4 2083.35,1603.4 		"/>
		<path class="st1" d="M1669.39,745.75c271.68,147.43,478.72-248.2,208.02-398.08C1604.45,201.86,1398.9,593.99,1669.39,745.75z
			 M1690.82,449.51c114.12-72.65,233.33,130.24,124.22,196.3C1701.08,718.92,1580.06,515.06,1690.82,449.51z"/>
		<path class="st1" d="M1785.06,1114.42c-9.16-12.66-20.17-22.45-33.04-29.38c9.28-2.48,18.15-7.71,26.63-15.68
			c8.47-7.96,15.58-17.62,21.31-28.95c5.73-11.32,9.33-23.08,10.78-35.26c3.23-27.01-0.75-51.07-11.92-72.16
			c-11.18-21.1-28.49-38.27-51.95-51.52c-23.46-13.25-51.68-21.84-84.67-25.79L1502.61,835l-66.43,470.33l196.7,23.41
			c31.44,3.76,60.3,1.82,86.59-5.81c26.29-7.64,47.88-21.06,64.77-40.26c16.89-19.2,23.44-43.08,26.98-72.75
			c1.93-16.16,0.93-32.17-3.02-48.03C1804.26,1146.03,1794.21,1127.08,1785.06,1114.42z M1608.98,948.58l70.08,8.38
			c14.37,1.72,25.73,6.56,34.06,14.51c8.32,7.95,11.81,17.66,10.44,29.09c-1.52,12.74-7.62,22.79-18.27,30.13
			c-10.66,7.35-24.64,9.98-41.96,7.91l-64.2-7.68L1608.98,948.58z M1769.01,1191.93c-2.89,24.2-12.02,42.54-27.37,55.02
			c-15.37,12.48-34.69,17.33-57.99,14.55l-127.73-15.27l18.16-151.93l120.33,14.39c16.58,1.98,30.73,7.2,42.45,15.64
			c11.71,8.46,20.37,18.7,25.99,30.72C1768.46,1167.09,1770.51,1179.39,1769.01,1191.93z"/>
		<path class="st1" d="M2138.34,954.42c-42.02-36.04-195.14-34.45-247.77-45.35l-76.29,426.77l158.73,35.52l4.76-174.57
			c0,0,24.58,2.74,24.58,2.74c10.22-0.65,24.23,161.09,24.23,161.09l170.96,10.7c0,0-71.45-188.88-71.45-188.88
			C2211.88,1142.06,2216.88,1005.25,2138.34,954.42z M1967.57,1117.05l24.45-111.35
			C2136.64,1019.61,2098.74,1172.28,1967.57,1117.05z"/>
		<path class="st1" d="M2207.57,1176.27c-44.05,262.1,344.47,335.68,397.53,75.15C2647.41,988.67,2262.31,915.38,2207.57,1176.27z
			 M2346.31,1280.36c-89.8-73.03,24.02-232.02,106.83-159.57C2542.61,1194.08,2429.09,1351.34,2346.31,1280.36z"/>
		<polygon class="st1" points="1367.09,472.53 1291.36,313.8 1143.06,385.93 1264.69,554.31 1306.72,767.07 1441.28,763.37 
			1436.66,595.26 1587.25,305.67 1431.08,309.96 		"/>
		<path class="st1" d="M1485.49,1361.27c-63.64,68.76-141.28,112.3-227.93,120.96c-260.89,26.08-504.46-273.67-544.03-669.5
			C673.96,416.89,853.38,74.86,1114.27,48.78c141.91-14.19,278.68,68.04,380.3,209.69l30.8-0.85
			c-107.86-162.61-258.21-258.63-414.51-243c-194.11,19.4-345.14,205.78-401.55,460.7c0,0-2.51,2.5-7.98,6.98
			c-1.68,1.13-3.16,2.1-3.9,2.69c-3.44,2.76-6.91,5.49-10.37,8.21c-47.07,33.87-227.81,115.84-498.5,173.06
			c0,0-192.41,22.4-173.96,196.36c0,0,11.08,182.77,36.12,285.57c1.61,6.62,3.93,13.05,6.61,19.31
			c6.69,15.65,15.82,30.26,26.83,43.24c15.79,18.62,35.5,33.66,57.39,44.44c28.41,13.98,59.53,20.88,91.2,21.33
			c29.96,0.42,60.63-2.9,90.08-8.28c9.23-1.68,18.42-3.49,27.73-4.64c1.07-0.13,1.91,0.19,2.25,1.28c0.4,1.32,0.29,2.87,0.27,4.23
			c-0.25,12.01-0.3,23.99-0.16,36c0.15,12.19,0.32,24.37,0.53,36.56c0.21,12.19,0.46,24.37,0.78,36.55
			c0.02,0.67,0.04,1.34,0.05,2.01c0.63,23.55,1.57,47.11,2.97,70.63c2.3,38.6,4.89,77.19,7.71,115.75
			c1.36,18.54,2.86,37.07,4.39,55.6c1.03,12.46,1.36,24.9,2.03,37.36c0.21,3.89,1.18,7.97,3.94,10.72c2.4,2.39,5.83,3.45,9.17,4
			c30.89,5.14,61.84,7.14,93.12,4.55c15.89-1.31,31.69-4.06,46.99-8.56c7.64-2.25,15.15-4.94,22.46-8.13
			c4.09-1.78,9.88-3.6,13.78-6.85c1.93-1.61,3.4-3.57,3.96-6.06c0.57-2.53,0.27-5.17-0.26-7.71c-1.97-9.31-6.28-18.05-8.69-27.27
			c-2.99-11.41-5.79-22.85-8.5-34.33c-2.77-11.77-5.47-23.55-8.05-35.36c-1.99-9.16-3.88-18.34-5.71-27.53
			c-0.11-0.57-0.23-1.17-0.04-1.73c0.42-1.26,2.05-1.55,3.38-1.63c10.83-0.61,21.63-1.22,32.39-2.74
			c47.31-6.68,85.3-38.47,106.51-80.41c11.53-22.8,20.05-47.14,23.83-72.44c2.62-17.49,1.18-35.2,0.75-52.91
			c0-12.41-0.6-24.84-0.9-37.25c-0.22-9.04-0.96-23.11,0.83-31.46c1.98-0.29,80.68,11.13,154.7,49.53
			c107.18,154.94,253.74,245.61,405.95,230.4c100.56-10.05,189.56-64.93,259.84-150.92L1485.49,1361.27z M639.29,1355.56
			c-7.96,22.37-24.47,42.67-46.5,52.72c-11.07,5.05-23.29,7.28-35.43,6.26c-14.06-1.19-22.84-5.18-26.74-19.42
			c-2.85-10.4-6.34-20.62-9.15-31.06c-11.03-40.99-18.25-84.28-21.8-126.57c-0.21-2.45-0.08-4.92-0.13-8.74
			c0,0,28.84-5.21,31.02-5.77c1.12,12.42,1.27,24.98,2.41,39.85c0.76,9.96,2.76,16.99,4.11,26.88c0.66,4.86,1.4,9.71,2.2,14.54
			c0.7,4.19,2.26,8.7,2.59,12.89c5.48,21.2,16.88,40.83,32.58,56.09c1.65,1.6,3.6,3.28,6.41,1.71c2.75-1.54,3.82-4.99,2.81-7.98
			c-18-53.31-19.48-91.3-1.98-143.93c-0.14-0.02,54.97,4.4,59.13,4.98c0.87,6.47,1.35,14.58,2.24,21.47
			c1.04,7.65,1.98,15.49,2.83,23.28C648.88,1300.27,648.65,1329.23,639.29,1355.56z"/>
		<g>
			<path class="st1" d="M1455.53,812.73l-189.45,5.21l-48.07-243.32L1068.1,367.09l246.56-119.92l48.05,100.71l34.14-86.72
				l43.87-1.21c-92.92-108.09-209.65-167.85-329.24-154.14c-221.74,25.42-376.81,294.6-371.06,621.42
				c70.81,4.6,253.41,14.25,253.41,14.25c14.81,2.36,27.69,5.42,30.91,19.2l20.2,80.1l5.76,26.45c3.22,13.78-4.35,28.4-17.86,34.81
				L784,1005.02c84.34,275.94,278.62,463.15,481.03,439.94c68.59-7.86,130.8-39.05,183.85-88.05l-69.04-8.22L1455.53,812.73z
				 M1099.85,868.96c-16.81,3.55-36.56-22.59-44.12-58.39c-7.57-35.8-0.08-67.7,16.73-71.25c16.8-3.55,36.56,22.59,44.12,58.39
				C1124.14,833.51,1116.65,865.41,1099.85,868.96z"/>
		</g>
	</g>
</g>
</svg>
