<?xml version="1.0" encoding="utf-8"?>
<!-- Generator: Adobe Illustrator 26.3.1, SVG Export Plug-In . SVG Version: 6.00 Build 0)  -->
<svg version="1.1" xmlns="http://www.w3.org/2000/svg" xmlns:xlink="http://www.w3.org/1999/xlink" x="0px" y="0px"
	 viewBox="0 0 2000 2000" style="enable-background:new 0 0 2000 2000;" xml:space="preserve">
<style type="text/css">
	.st0{fill:#FFFFFF;}
	.st1{fill:#F04C4B;}
</style>
<g id="Layer_2">
</g>
<g id="Layer_1">
	<g>
		<g>
			<path class="st1" d="M590.76,1629.73c-3.38-3.67-7.25-6.35-11.59-8.06c2.85-1.14,5.47-3.13,7.85-5.98
				c2.38-2.85,4.27-6.18,5.66-9.99c1.39-3.81,2.08-7.67,2.08-11.59c0-8.69-2.17-16.17-6.51-22.43
				c-4.35-6.27-10.49-11.06-18.43-14.37c-7.94-3.31-17.22-4.97-27.83-4.97h-62.28v150.09h68.48c10.11,0,19.19-1.71,27.24-5.13
				c8.05-3.42,14.38-8.49,19.01-15.22c4.63-6.73,6.94-14.86,6.94-24.41c0-5.2-0.93-10.24-2.78-15.12
				C596.76,1637.67,594.14,1633.4,590.76,1629.73z M524.26,1590.26h15.28c3.13,0,5.7,0.75,7.69,2.24c1.99,1.49,2.99,3.49,2.99,5.98
				c0,2.78-1.05,5.09-3.15,6.94c-2.1,1.85-5.04,2.78-8.81,2.78h-14V1590.26z M553.37,1662c-2.17,2.24-5.11,3.36-8.81,3.36h-20.3
				v-24.14h19.12c2.63,0,4.95,0.55,6.94,1.66c1.99,1.1,3.54,2.55,4.65,4.33c1.1,1.78,1.66,3.67,1.66,5.66
				C556.63,1656.71,555.54,1659.75,553.37,1662z"/>
			<path class="st1" d="M735.61,1628.08c3.67-6.69,5.5-14.64,5.5-23.82c0-10.04-2.26-19-6.78-26.87
				c-4.52-7.87-10.84-14.01-18.96-18.43c-8.12-4.42-17.38-6.62-27.77-6.62h-66.66v150.09h44.55v-46.25h9.29h2.78l21.9,46.25h50.21
				l-29.38-57.79C726.84,1640.29,731.94,1634.77,735.61,1628.08z M694.27,1610.67c-1.11,1.99-2.62,3.6-4.54,4.81
				c-1.92,1.21-4.02,1.81-6.3,1.81h-17.95v-24.78h18.37c3.13,0,5.93,1.03,8.39,3.1c2.46,2.07,3.69,4.99,3.69,8.76
				C695.93,1606.57,695.38,1608.67,694.27,1610.67z"/>
			<polygon class="st1" points="808.73,1645.49 859.26,1645.49 859.26,1608.42 808.73,1608.42 808.73,1592.4 874.43,1592.4 
				874.43,1552.34 764.19,1552.34 764.19,1702.43 876.03,1702.43 876.03,1662.37 808.73,1662.37 			"/>
			<polygon class="st1" points="1025.69,1639.4 1015.54,1604.58 1032.1,1552.34 984.88,1552.34 959.78,1639.51 931.68,1552.34 
				883.83,1552.34 940.12,1702.43 977.94,1702.43 992.68,1662.48 1006.78,1702.43 1044.17,1702.43 1101.22,1552.34 1053.25,1552.34 
							"/>
			<polygon class="st1" points="1160.07,1645.49 1210.6,1645.49 1210.6,1608.42 1160.07,1608.42 1160.07,1592.4 1225.77,1592.4 
				1225.77,1552.34 1115.53,1552.34 1115.53,1702.43 1227.38,1702.43 1227.38,1662.37 1160.07,1662.37 			"/>
			<path class="st1" d="M1362.45,1628.08c3.67-6.69,5.5-14.64,5.5-23.82c0-10.04-2.26-19-6.78-26.87
				c-4.52-7.87-10.84-14.01-18.96-18.43c-8.12-4.42-17.38-6.62-27.77-6.62h-66.66v150.09h44.55v-46.25h9.29h2.78l21.9,46.25h50.21
				l-29.38-57.79C1353.67,1640.29,1358.78,1634.77,1362.45,1628.08z M1321.11,1610.67c-1.11,1.99-2.62,3.6-4.54,4.81
				c-1.92,1.21-4.02,1.81-6.3,1.81h-17.95v-24.78h18.38c3.13,0,5.93,1.03,8.39,3.1c2.46,2.07,3.69,4.99,3.69,8.76
				C1322.77,1606.57,1322.21,1608.67,1321.11,1610.67z"/>
			<polygon class="st1" points="1445.93,1605.54 1422.33,1552.34 1370.84,1552.34 1423.29,1647.09 1423.29,1702.43 1467.83,1702.43 
				1467.83,1646.77 1520.28,1552.34 1468.58,1552.34 			"/>
		</g>
		<g>
			<path class="st1" d="M773.26,781.24c298.58,162.03,526.13-272.78,228.62-437.51C701.88,183.48,475.97,614.46,773.26,781.24z
				 M796.8,455.66c125.42-79.84,256.43,143.14,136.52,215.74C808.09,751.75,675.08,527.71,796.8,455.66z"/>
			<path class="st1" d="M900.39,1186.42c-10.06-13.91-22.17-24.68-36.31-32.29c10.19-2.73,19.95-8.47,29.27-17.24
				c9.31-8.75,17.12-19.36,23.42-31.81c6.3-12.45,10.25-25.37,11.85-38.75c3.55-29.69-0.82-56.12-13.1-79.31
				c-12.29-23.18-31.32-42.06-57.09-56.62c-25.78-14.56-56.8-24-93.05-28.34l-175.43-22.73l-73.01,516.91l216.18,25.73
				c34.55,4.13,66.27,2,95.17-6.39c28.89-8.4,52.62-23.14,71.19-44.24c18.56-21.11,25.76-47.35,29.65-79.96
				c2.12-17.76,1.02-35.36-3.32-52.78C921.48,1221.17,910.44,1200.34,900.39,1186.42z M706.86,1004.16l77.02,9.21
				c15.8,1.89,28.27,7.21,37.43,15.95c9.15,8.74,12.98,19.4,11.48,31.97c-1.67,14-8.37,25.04-20.08,33.11
				c-11.71,8.08-27.08,10.97-46.11,8.69l-70.56-8.44L706.86,1004.16z M882.75,1271.61c-3.18,26.6-13.21,46.76-30.09,60.47
				c-16.89,13.72-38.13,19.05-63.74,15.99l-140.38-16.78l19.96-166.98l132.25,15.81c18.22,2.18,33.78,7.91,46.66,17.19
				c12.87,9.29,22.39,20.55,28.56,33.76C882.13,1244.32,884.39,1257.83,882.75,1271.61z"/>
			<path class="st1" d="M1288.65,1010.58c-46.18-39.61-214.46-37.86-272.31-49.84l-83.85,469.04l174.45,39.04l5.23-191.86
				c0,0,27.01,3.01,27.02,3.01c11.23-0.71,26.63,177.05,26.63,177.05l187.9,11.76c0,0-78.53-207.59-78.53-207.59
				C1369.48,1216.81,1374.97,1066.45,1288.65,1010.58z M1100.97,1189.32l26.87-122.38
				C1286.79,1082.23,1245.13,1250.01,1100.97,1189.32z"/>
			<path class="st1" d="M1364.74,1254.41c-48.41,288.06,378.59,368.92,436.9,82.59C1848.14,1048.22,1424.9,967.67,1364.74,1254.41z
				 M1517.22,1368.81c-98.7-80.26,26.39-255,117.41-175.38C1732.96,1273.98,1608.2,1446.81,1517.22,1368.81z"/>
			<polygon class="st1" points="441.01,480.96 357.79,306.51 194.79,385.78 328.47,570.85 374.67,804.68 522.55,800.61 
				517.47,615.85 682.98,297.57 511.34,302.29 			"/>
		</g>
	</g>
</g>
</svg>
